<svg xmlns="http://www.w3.org/2000/svg" viewBox="0 0 103.3 46.83"><defs><style>.cls-1{fill:#810026;}.cls-2{fill:#9c2425;}</style></defs><title>Asset 3</title><g id="Layer_2" data-name="Layer 2"><g id="Ñëîé_10" data-name="Ñëîé 10"><rect class="cls-1" x="69.26" width="2.27" height="46.83"/><rect class="cls-1" x="22.43" width="2.27" height="46.83"/><rect class="cls-1" y="31.35" width="103.3" height="2.89"/><path class="cls-1" d="M51.09,32.18l-.5-.45A100.06,100.06,0,0,0,69.41.48L70,.72A101,101,0,0,1,51.09,32.18Z"/><path class="cls-1" d="M53.32,33.29l-.51-.43A96.78,96.78,0,0,0,70.08,3.05l.63.22A97.18,97.18,0,0,1,53.32,33.29Z"/><path class="cls-1" d="M96.29,32.18A101.11,101.11,0,0,1,77.35.72L78,.48A100.06,100.06,0,0,0,96.8,31.73Z"/><path class="cls-1" d="M94.07,33.29a97.18,97.18,0,0,1-17.39-30l.63-.22A96.58,96.58,0,0,0,94.58,32.86Z"/><path class="cls-1" d="M4.26,32.18l-.5-.45A100.06,100.06,0,0,0,22.58.48l.63.24A101,101,0,0,1,4.26,32.18Z"/><path class="cls-1" d="M6.49,33.29,6,32.86A96.78,96.78,0,0,0,23.25,3.05l.63.22A97.18,97.18,0,0,1,6.49,33.29Z"/><path class="cls-1" d="M49.46,32.18A101.11,101.11,0,0,1,30.52.72l.63-.24A100.06,100.06,0,0,0,50,31.73Z"/><path class="cls-1" d="M47.24,33.29a97,97,0,0,1-17.39-30l.63-.22A96.58,96.58,0,0,0,47.75,32.86Z"/><rect class="cls-2" x="75.86" width="2.27" height="46.83"/><rect class="cls-1" x="69.26" y="1.65" width="8.87" height="2.06"/><rect class="cls-1" x="69.26" y="9.21" width="8.87" height="2.07"/><rect class="cls-1" x="69.26" y="16.78" width="8.87" height="2.06"/><rect class="cls-1" x="69.26" y="24.34" width="8.87" height="2.07"/><rect class="cls-2" x="29.03" width="2.27" height="46.83"/><rect class="cls-1" x="22.43" y="1.65" width="8.88" height="2.06"/><rect class="cls-1" x="22.43" y="9.21" width="8.88" height="2.07"/><rect class="cls-1" x="22.43" y="16.78" width="8.88" height="2.06"/><rect class="cls-1" x="22.43" y="24.34" width="8.88" height="2.07"/></g></g></svg>